#!OML:ASF I:\Actors\actors\Patient Classification 1\Patient 1\Session 1\Subject1.ASF
:FULLY-SPECIFIED
:DEGREES
1397
root 0.55352 17.6752 8.79388 20.1516 0.653101 -9.33291
lowerback 8.41946 4.49685 10.1503
upperback -4.93075 7.22295 -1.47088
thorax -8.61606 2.86193 -8.32543
lowerneck -14.7606 -11.6743 -11.23
upperneck 14.587 -16.985 17.551
head 9.61823 -7.10934 5.422
rclavicle -1.03169e-013 3.57812e-015
rhumerus 57.5589 39.5236 -2.73454
rradius 72.8166
rwrist 15.2433
rhand -9.46228 -52.7801
rfingers 7.12502
rthumb 16.5014 277.902
lclavicle -1.03169e-013 3.57812e-015
lhumerus -35.4742 -73.3857 94.8636
lradius 107.525
lwrist 20.3559
lhand -19.7047 -19.0167
lfingers 7.12502
lthumb 6.62485 10.8596
rfemur -15.1364 28.7262 17.9621
rtibia 1.84984
rfoot -14.6722 -35.3103
rtoes 9.92213
lfemur -8.63324 -57.2401 -0.552793
ltibia -6.49138
lfoot -53.1738 60.699
ltoes 33.0349
1398
root 0.551635 17.675 8.79273 20.1379 0.466663 -9.32809
lowerback 8.34164 4.49183 10.0971
upperback -4.96656 7.20978 -1.38959
thorax -8.62897 2.85935 -8.1998
lowerneck -14.7401 -11.6309 -11.2307
upperneck 14.6796 -16.9038 17.3886
head 9.61478 -7.08362 5.38246
rclavicle -5.12864e-014 7.55382e-015
rhumerus 56.9294 39.7864 -2.16669
rradius 73.5335
rwrist 15.7453
rhand -10.3719 -52.0998
rfingers 7.12502
rthumb 15.6255 278.511
lclavicle -5.12864e-014 7.55382e-015
lhumerus -36.2929 -73.1793 95.5631
lradius 107.54
lwrist 20.3377
lhand -19.3629 -18.8632
lfingers 7.12502
lthumb 6.95481 11.0025
rfemur -15.1771 28.7885 17.9321
rtibia 1.90701
rfoot -14.61 -35.24
rtoes 9.78628
lfemur -8.35464 -57.099 -0.790975
ltibia -6.59679
lfoot -53.4525 60.4378
ltoes 33.4759
1399
root 0.550337 17.6748 8.7923 20.1199 0.304631 -9.30105
lowerback 8.27259 4.49028 10.1089
upperback -4.98508 7.20194 -1.39668
thorax -8.60856 2.85571 -8.20633
lowerneck -14.8276 -11.6376 -11.052
upperneck 14.7976 -16.9204 17.1839
head 9.63486 -7.08961 5.27725
rclavicle 2.67365e-014 3.02153e-014
rhumerus 56.0238 39.9167 -1.95898
rradius 74.0745
rwrist 16.7658
rhand -11.1532 -51.4424
rfingers 7.12502
rthumb 14.8729 279.111
lclavicle 2.67365e-014 3.02153e-014
lhumerus -36.6551 -73.1983 95.7621
lradius 107.501
lwrist 20.2647
lhand -19.5086 -18.9436
lfingers 7.12502
lthumb 6.81422 10.9267
rfemur -15.1955 28.9356 17.869
rtibia 1.94453
rfoot -14.6596 -35.2607
rtoes 9.87194
lfemur -8.11058 -56.9847 -1.01863
ltibia -6.70839
lfoot -53.5499 60.3533
ltoes 33.6747
1400
root 0.549975 17.6742 8.7913 20.1004 0.1803 -9.26847
lowerback 8.16594 4.44621 10.1325
upperback -4.9814 7.13568 -1.36489
thorax -8.55735 2.82713 -8.16519
lowerneck -14.9453 -11.6347 -10.969
upperneck 14.9433 -16.9061 16.9881
head 9.67494 -7.08327 5.19496
rclavicle -2.08724e-014 -1.59028e-014
rhumerus 55.2753 39.9955 -1.67548
rradius 74.5259
rwrist 17.7785
rhand -11.5833 -51.0429
rfingers 7.12502
rthumb 14.4585 279.481
lclavicle -2.08724e-014 -1.59028e-014
lhumerus -37.1289 -73.1221 96.0693
lradius 107.445
lwrist 20.0685
lhand -20.0098 -19.1065
lfingers 7.12502
lthumb 6.33038 10.7789
rfemur -15.2042 29.05 17.8066
rtibia 1.95823
rfoot -14.7429 -35.2876
rtoes 10.2106
lfemur -7.96996 -56.9026 -1.17862
ltibia -6.75562
lfoot -53.3981 60.4291
ltoes 33.5073
1401
root 0.548946 17.6737 8.78937 20.0771 0.0354337 -9.27457
lowerback 8.07805 4.40793 10.1537
upperback -4.99935 7.0839 -1.29175
thorax -8.54372 2.8034 -8.08348
lowerneck -15.023 -11.6215 -10.9162
upperneck 15.1132 -16.8693 16.7591
head 9.71163 -7.07268 5.112
rclavicle 2.72335e-014 -5.56597e-015
rhumerus 54.694 40.077 -1.26651
rradius 74.9218
rwrist 18.0996
rhand -11.8529 -50.8133
rfingers 7.12502
rthumb 14.1987 279.692
lclavicle 2.72335e-014 -5.56597e-015
lhumerus -37.7693 -72.9534 96.5529
lradius 107.462
lwrist 20.0473
lhand -19.8673 -19.1285
lfingers 7.12502
lthumb 6.46788 10.7527
rfemur -15.2135 29.0656 17.8023
rtibia 1.96733
rfoot -14.6732 -35.2074
rtoes 10.2958
lfemur -7.82702 -56.7924 -1.31353
ltibia -6.77213
lfoot -53.2754 60.4671
ltoes 33.3237
